<?xml version="1.0" encoding="UTF-8" standalone="no"?>
  <svg
     inkscape:version="1.2.2 (b0a8486541, 2022-12-01)"
     sodipodi:docname="hcs-ocp-logo.svg"
     id="svg8"
     version="1.1"
     viewBox="0 0 66.128434 15.875"
     height="60"
     width="249.93423"
     xmlns:inkscape="http://www.inkscape.org/namespaces/inkscape"
     xmlns:sodipodi="http://sodipodi.sourceforge.net/DTD/sodipodi-0.dtd"
     xmlns:xlink="http://www.w3.org/1999/xlink"
     xmlns="http://www.w3.org/2000/svg"
     xmlns:svg="http://www.w3.org/2000/svg"
     xmlns:rdf="http://www.w3.org/1999/02/22-rdf-syntax-ns#"
     xmlns:cc="http://creativecommons.org/ns#"
     xmlns:dc="http://purl.org/dc/elements/1.1/">
    <sodipodi:namedview
       inkscape:current-layer="svg8"
       inkscape:window-maximized="1"
       inkscape:window-y="0"
       inkscape:window-x="0"
       inkscape:cy="37.938333"
       inkscape:cx="249.72067"
       inkscape:zoom="1.0411633"
       inkscape:guide-bbox="true"
       showguides="true"
       showgrid="false"
       id="namedview34"
       inkscape:window-height="2128"
       inkscape:window-width="3840"
       inkscape:pageshadow="2"
       inkscape:pageopacity="0"
       guidetolerance="10"
       gridtolerance="10"
       objecttolerance="10"
       borderopacity="1"
       bordercolor="#666666"
       pagecolor="#ffffff"
       inkscape:showpageshadow="2"
       inkscape:pagecheckerboard="0"
       inkscape:deskcolor="#d1d1d1"
       inkscape:document-units="mm">
      <sodipodi:guide
         id="guide861"
         orientation="0,-1"
         position="88.180618,5.7100872"
         inkscape:locked="false" />
      <sodipodi:guide
         id="guide863"
         orientation="0,-1"
         position="74.454147,-11.410649"
         inkscape:locked="false" />
    </sodipodi:namedview>
    <defs
       id="defs2">
      <path
         id="logo-zwart@1x-a"
         d="M 82.594842,49.703884 C 83.976074,51.429338 85.552636,53.016352 87.314057,54.468294 90.826454,57.358683 95.008537,59.631156 99.86378,61.282314 104.71904,62.93349 110.00332,63.760759 115.71313,63.760759 H 143.99709 L 146.69371,60.185259 156.35846,47.370636 H 115.71662 C 112.96113,47.370636 110.40095,47.005964 108.03959,46.273232 105.67823,45.543879 103.62731,44.510629 101.88681,43.17687 100.14632,41.843111 98.803434,40.239207 97.85123,38.365178 96.899007,36.491157 96.424642,34.411155 96.424642,32.121811 96.424642,29.835836 96.916439,27.738953 97.90005,25.831163 98.883662,23.92674 100.23002,22.289085 101.93563,20.921555 103.64126,19.557395 105.67823,18.490384 108.03959,17.730647 110.40095,16.967523 112.96113,16.585971 115.71662,16.585971 H 160.55099 C 160.81261,14.583634 161.33579,12.625192 162.16591,10.747784 163.43205,7.8844091 165.39232,5.4971416 167.92458,3.5758435 169.97898,2.019222 172.33685,0.8644164 174.79239,0 H 115.71662 C 110.0068,0 104.72254,0.74623393 99.867274,2.2387018 95.012012,3.7311697 90.826454,5.8618137 87.317551,8.6238963 85.552636,10.011684 83.979568,11.537923 82.598326,13.199215 81.70889,14.269604 80.896199,15.397399 80.163726,16.579215 79.769581,17.214022 79.399855,17.86571 79.051056,18.534279 77.048959,22.376875 76.047915,26.617914 76.047915,31.257395 76.047915,35.896867 77.048959,40.19869 79.051056,44.169603 79.399855,44.85843 79.769581,45.533754 80.163726,46.192189 80.892705,47.424665 81.705406,48.592977 82.594842,49.703884 Z M 59.881166,0.00675132 H 80.160232 V 12.392205 C 78.911534,13.975841 77.81283,15.670903 76.87107,17.48077 74.624822,21.792719 73.606327,26.442324 73.606327,31.264141 73.606327,36.139987 74.649242,40.83011 76.857122,45.212968 77.802367,47.08362 78.904565,48.846214 80.160232,50.494012 V 63.760759 H 59.881166 V 39.172196 H 20.70078 V 63.760759 H 0.22289872 V 0.00675132 H 20.70078 V 22.592981 H 59.881166 Z M 168.58031,63.764137 H 221.74747 C 226.73527,63.764137 231.01847,63.288029 234.59366,62.335831 238.17233,61.383616 241.1057,60.016086 243.40426,58.236612 245.70286,56.457128 247.37357,54.265699 248.42346,51.662325 249.47334,49.058951 250,46.134791 250,42.893232 250,37.048299 247.90027,32.678953 243.70077,29.788563 239.50124,26.898174 233.3624,25.452979 225.29123,25.452979 H 189.45929 C 187.09795,25.452979 185.34003,25.118699 184.19246,24.453499 183.04494,23.784931 182.4694,22.626743 182.4694,20.975575 182.4694,20.182077 182.60194,19.506744 182.86703,18.949602 183.15304,18.341809 183.59604,17.875835 184.19246,17.544933 185.34003,16.910126 187.09795,16.592727 189.45929,16.592727 H 235.13778 L 248.23161,0.01012927 H 191.03588 C 186.04807,0.01012927 181.76483,0.4862325 178.18968,1.438439 174.61101,2.39065 171.69158,3.7244138 169.42788,5.4397348 167.16418,7.1550649 165.48996,9.235058 164.40869,11.68311 163.73203,13.212727 163.26464,14.850382 163.01349,16.592727 162.90187,17.359219 162.83214,18.14597 162.80076,18.949602 162.79029,19.239996 162.78331,19.533758 162.78331,19.830899 162.78331,22.562589 163.2751,25.057914 164.25869,27.313497 165.24232,29.569079 166.75262,31.490382 168.78609,33.080774 170.81957,34.667778 173.37974,35.907001 176.46661,36.798431 179.54997,37.686484 183.22628,38.132191 187.49211,38.132191 H 223.32401 C 225.75164,38.132191 227.52354,38.483369 228.63968,39.18233 229.75585,39.881291 230.3139,41.056351 230.3139,42.707518 230.3139,44.358685 229.75585,45.550635 228.63968,46.279979 227.52354,47.009342 225.75164,47.377392 223.32401,47.377392 H 180.9417 Z M 153.79828,63.764137 H 148.9814 L 151.13255,60.911097 161.33927,47.374014 H 166.15615 L 155.42073,61.612298 Z M 163.59949,63.764137 H 158.7826 L 159.85797,62.337869 171.14048,47.374014 H 175.95737 L 164.14618,63.03907 Z M 15.611383,82.722326 14.002938,86.625996 C 13.719094,86.509119 13.553519,86.462369 13.198715,86.462369 12.134302,86.462369 10.502203,87 8.4916463,87 2.980355,87 0,83.820964 0,79.63679 0,75.662995 2.6965116,71.712574 8.6808752,71.712574 11.259119,71.712574 13.080447,72.483958 13.766402,72.483958 13.95563,72.483958 14.073898,72.437208 14.192167,72.320331 H 14.783507 L 14.901775,76.177251 H 14.192167 C 13.316983,73.769598 11.40104,72.460583 8.7754896,72.460583 5.227448,72.460583 2.8620869,75.078613 2.8620869,79.029033 2.8620869,83.119705 5.5822522,86.15849 9.2012546,86.15849 11.519308,86.15849 13.577173,84.942976 14.901775,82.722326 Z M 38.723743,79.753667 C 38.723743,75.078613 42.342746,71.712574 47.357311,71.712574 52.466491,71.712574 55.990879,74.727984 55.990879,79.099159 55.990879,83.306708 52.584759,87 47.262697,87 42.319092,87 38.723743,83.93784 38.723743,79.753667 Z M 41.58583,79.122534 C 41.58583,83.820964 44.637146,86.251991 47.641155,86.251991 50.929007,86.251991 53.128792,83.610586 53.128792,79.683541 53.128792,75.452617 50.645163,72.460583 47.168082,72.460583 43.761963,72.460583 41.58583,75.031862 41.58583,79.122534 Z M 78.84305,86.625996 V 85.994863 C 80.309574,85.994863 80.735339,85.737735 80.87726,83.704087 L 81.444947,75.101988 C 81.586869,73.021589 81.326679,72.717711 79.95477,72.717711 V 72.086579 H 84.330688 L 89.439868,82.909328 94.265204,72.086579 H 98.641122 V 72.717711 C 97.31652,72.717711 97.032677,72.998214 97.127291,74.073476 L 97.978821,84.709224 C 98.073436,85.901362 98.522854,85.994863 99.918417,85.994863 V 86.625996 H 93.200792 V 85.994863 C 95.140388,85.994863 95.471538,85.527358 95.282309,83.04958 L 94.643662,74.424105 H 94.596355 L 89.132371,86.625996 H 88.328148 L 82.769549,74.727984 H 82.722242 L 82.154555,83.376833 C 81.98898,85.877987 82.533013,85.877987 84.094151,85.994863 V 86.625996 Z M 122.22656,86.625996 V 85.994863 C 123.85865,85.924738 124.21346,85.597484 124.21346,83.517085 V 75.195489 C 124.21346,72.928088 123.81135,72.717711 121.94271,72.717711 V 72.086579 C 122.62867,72.086579 123.81135,72.039828 124.37903,72.016453 125.51441,71.969702 127.07555,71.899576 127.52496,71.899576 131.9955,71.899576 134.40816,72.904713 134.40816,76.107125 134.40816,78.842031 132.11376,80.735428 128.7786,80.735428 128.13996,80.735428 127.50131,80.688677 126.83901,80.571801 V 83.774213 C 126.83901,85.574109 127.31208,85.971488 129.51187,85.994863 V 86.625996 Z M 126.83901,72.62421 V 79.870543 C 127.14651,79.917294 127.50131,79.987419 127.85611,79.987419 130.03225,79.987419 131.54608,78.351151 131.54608,76.060374 131.54608,74.494231 130.83647,72.554084 127.99804,72.554084 127.54862,72.554084 127.19381,72.577459 126.83901,72.62421 Z M 153.73595,86.625996 V 85.994863 C 155.32074,85.971488 155.62824,85.71436 156.29054,83.891089 L 160.57184,72.296956 160.38261,71.712574 H 163.03182 L 167.64427,83.891089 C 168.33023,85.71436 168.56676,85.994863 170.05694,85.994863 V 86.625996 H 163.03182 V 85.994863 C 164.90045,85.994863 165.42083,85.807861 165.42083,85.129979 165.42083,84.896226 165.32622,84.498846 165.08968,83.891089 L 163.95431,80.992556 H 158.53763 L 157.3786,84.101467 C 157.21303,84.545597 157.14207,84.849475 157.14207,85.083228 157.14207,85.761111 157.61514,86.064989 159.50743,85.994863 V 86.625996 Z M 158.98705,79.823792 H 163.50489 L 161.23414,73.90985 Z M 206.91205,86.766247 195.34543,74.727984 V 83.704087 C 195.34543,85.527358 195.58197,86.11174 197.71079,85.994863 V 86.625996 H 192.05758 V 85.994863 C 193.76064,86.041614 194.04448,85.503983 194.04448,83.98459 V 73.465719 C 193.47679,72.974839 192.95642,72.787837 192.05758,72.717711 V 72.086579 H 196.33888 L 206.88839,83.09633 V 74.727984 C 206.88839,72.974839 206.60455,72.694336 204.54668,72.717711 V 72.086579 H 210.27086 V 72.717711 C 208.68607,72.717711 208.18934,72.998214 208.18934,74.774734 V 86.766247 Z M 239.69873,80.92243 235.25185,74.611108 C 234.06917,72.928088 233.76168,72.787837 232.29515,72.717711 V 72.086579 H 239.41489 V 72.717711 C 238.13759,72.717711 237.75914,72.974839 237.75914,73.395594 237.75914,73.699472 237.94837,74.096852 238.56336,74.961737 L 241.66198,79.332912 244.35849,75.101988 C 244.90253,74.237103 245.13906,73.769598 245.13906,73.442344 245.13906,72.928088 244.68965,72.717711 243.62523,72.717711 V 72.086579 H 249.18383 V 72.717711 C 247.45712,72.904713 247.03135,73.208591 245.51752,75.616244 L 242.32428,80.712053 V 83.961215 C 242.32428,85.690985 242.60813,85.994863 244.57138,85.994863 V 86.625996 H 237.42799 V 85.994863 C 239.22566,85.994863 239.69873,85.831237 239.69873,83.891089 Z" />
    </defs>
    <metadata
       id="metadata5">
      <rdf:RDF>
        <cc:Work
           rdf:about="">
          <dc:format>image/svg+xml</dc:format>
          <dc:type
             rdf:resource="http://purl.org/dc/dcmitype/StillImage" />
        </cc:Work>
      </rdf:RDF>
    </metadata>
    <g
       id="g346"
       transform="matrix(0.36648285,0,0,0.36648285,2.8165871,0.08383716)">
      <use
         id="use973"
         xlink:href="#logo-zwart@1x-a"
         fill-rule="evenodd"
         fill="#e4002b"
         transform="matrix(0.26458333,0,0,0.26458333,0,10.246004)"
         x="0"
         y="0"
         width="100%"
         height="100%" />
      <g
         transform="matrix(0.74557843,0,0,0.74557843,18.007472,2.6342835)"
         aria-label="OpenShift Container Platform"
         id="text890"
         style="font-weight:900;font-size:12.5481px;line-height:1;font-family:Overpass;-inkscape-font-specification:'Overpass Heavy';text-align:center;letter-spacing:0px;word-spacing:0px;writing-mode:lr-tb;text-anchor:middle;fill:#ffffff;stroke-width:0.294095">
        <path
           d="M 75.53382,17.679438 C 74.291558,17.679438 73.463384,16.73833 73.463384,15.107077 V 15.006692 C 73.463384,13.375439 74.253914,12.459428 75.521272,12.459428 76.78863,12.459428 77.591709,13.400535 77.591709,14.994144 V 15.094529 C 77.591709,16.700686 76.801178,17.679438 75.53382,17.679438 Z M 75.483628,19.699682 C 78.382239,19.699682 80.277002,17.817467 80.277002,15.056885 V 14.9565 C 80.277002,12.170822 78.256758,10.451732 75.521272,10.451732 72.835979,10.451732 70.77809,12.283755 70.77809,15.01924 V 15.119625 C 70.77809,17.817467 72.585017,19.699682 75.483628,19.699682 Z"
           style="font-style:normal;font-variant:normal;font-weight:bold;font-stretch:normal;font-size:12.5481px;font-family:Graphik;-inkscape-font-specification:'Graphik Bold';font-variant-ligatures:normal;font-variant-caps:normal;font-variant-numeric:normal;font-variant-east-asian:normal;text-align:start;text-anchor:start;fill:#ffffff;stroke-width:0.294095"
           id="path898" />
        <path
           d="M 81.331022,21.745022 H 83.577132 V 18.582901 C 83.903383,19.235402 84.618624,19.699682 85.609924,19.699682 87.153341,19.699682 88.395603,18.570353 88.395603,16.311695 V 16.21131 C 88.395603,13.9652 87.153341,12.810775 85.622472,12.810775 84.631172,12.810775 83.953575,13.337795 83.577132,13.9652 V 12.986448 H 81.331022 Z M 84.819394,17.980592 C 84.003767,17.980592 83.514392,17.415928 83.514392,16.299147 V 16.198762 C 83.514392,15.094529 84.003767,14.504768 84.819394,14.504768 85.609924,14.504768 86.111848,15.056885 86.111848,16.21131 V 16.311695 C 86.111848,17.390831 85.660117,17.980592 84.819394,17.980592 Z"
           style="font-style:normal;font-variant:normal;font-weight:bold;font-stretch:normal;font-size:12.5481px;font-family:Graphik;-inkscape-font-specification:'Graphik Bold';font-variant-ligatures:normal;font-variant-caps:normal;font-variant-numeric:normal;font-variant-east-asian:normal;text-align:start;text-anchor:start;fill:#ffffff;stroke-width:0.294095"
           id="path900" />
        <path
           d="M 92.611761,19.699682 C 94.594361,19.699682 95.736238,18.858959 95.937008,17.378283 H 93.828927 C 93.74109,17.817467 93.427387,18.156266 92.68705,18.156266 91.883971,18.156266 91.382047,17.654342 91.319307,16.788523 H 95.937008 V 16.198762 C 95.937008,13.839719 94.393591,12.810775 92.599213,12.810775 90.616613,12.810775 89.0481,14.140873 89.0481,16.248954 V 16.349339 C 89.0481,18.495064 90.553872,19.699682 92.611761,19.699682 Z M 91.344403,15.521164 C 91.457336,14.730634 91.921615,14.291451 92.599213,14.291451 93.327003,14.291451 93.715994,14.730634 93.753638,15.521164 Z"
           style="font-style:normal;font-variant:normal;font-weight:bold;font-stretch:normal;font-size:12.5481px;font-family:Graphik;-inkscape-font-specification:'Graphik Bold';font-variant-ligatures:normal;font-variant-caps:normal;font-variant-numeric:normal;font-variant-east-asian:normal;text-align:start;text-anchor:start;fill:#ffffff;stroke-width:0.294095"
           id="path902" />
        <path
           d="M 96.903205,19.549105 H 99.149315 V 15.872511 C 99.149315,15.031789 99.601046,14.630249 100.2661,14.630249 100.9186,14.630249 101.2072,14.994144 101.2072,15.734482 V 19.549105 H 103.45331 V 15.282751 C 103.45331,13.601305 102.57495,12.810775 101.30759,12.810775 100.2159,12.810775 99.500661,13.362891 99.149315,14.040489 V 12.986448 H 96.903205 Z"
           style="font-style:normal;font-variant:normal;font-weight:bold;font-stretch:normal;font-size:12.5481px;font-family:Graphik;-inkscape-font-specification:'Graphik Bold';font-variant-ligatures:normal;font-variant-caps:normal;font-variant-numeric:normal;font-variant-east-asian:normal;text-align:start;text-anchor:start;fill:#ffffff;stroke-width:0.294095"
           id="path904" />
        <path
           d="M 108.22157,19.699682 C 110.53043,19.699682 111.83543,18.357035 111.83543,16.713234 111.83543,14.768278 110.66845,14.178518 108.39725,13.927556 107.28047,13.776978 107.00441,13.551113 107.00441,13.049189 107.00441,12.597457 107.35576,12.283755 108.0459,12.283755 108.74859,12.283755 109.11249,12.610005 109.20033,13.249958 H 111.58447 C 111.42134,11.355195 110.20417,10.451732 108.0459,10.451732 105.90018,10.451732 104.57008,11.631253 104.57008,13.249958 104.57008,15.056885 105.42335,15.809771 107.95806,16.110925 109.0372,16.27405 109.376,16.424628 109.376,16.976744 109.376,17.503764 108.96191,17.867659 108.22157,17.867659 107.15499,17.867659 106.86638,17.340639 106.80364,16.700686 H 104.35676 C 104.43205,18.645641 105.71195,19.699682 108.22157,19.699682 Z"
           style="font-style:normal;font-variant:normal;font-weight:bold;font-stretch:normal;font-size:12.5481px;font-family:Graphik;-inkscape-font-specification:'Graphik Bold';font-variant-ligatures:normal;font-variant-caps:normal;font-variant-numeric:normal;font-variant-east-asian:normal;text-align:start;text-anchor:start;fill:#ffffff;stroke-width:0.294095"
           id="path906" />
        <path
           d="M 112.85182,19.549105 H 115.09793 V 15.872511 C 115.09793,15.031789 115.54966,14.630249 116.21471,14.630249 116.86721,14.630249 117.15582,14.994144 117.15582,15.734482 V 19.549105 H 119.40193 V 15.282751 C 119.40193,13.601305 118.52356,12.810775 117.2562,12.810775 116.16452,12.810775 115.44927,13.362891 115.09793,14.040489 V 10.100385 H 112.85182 Z"
           style="font-style:normal;font-variant:normal;font-weight:bold;font-stretch:normal;font-size:12.5481px;font-family:Graphik;-inkscape-font-specification:'Graphik Bold';font-variant-ligatures:normal;font-variant-caps:normal;font-variant-numeric:normal;font-variant-east-asian:normal;text-align:start;text-anchor:start;fill:#ffffff;stroke-width:0.294095"
           id="path908" />
        <path
           d="M 120.74456,19.549105 H 122.99067 V 12.986448 H 120.74456 Z M 121.86134,12.359043 C 122.56403,12.359043 123.1036,11.869667 123.1036,11.204618 123.1036,10.539569 122.56403,10.037645 121.86134,10.037645 121.15864,10.037645 120.63162,10.539569 120.63162,11.204618 120.63162,11.869667 121.15864,12.359043 121.86134,12.359043 Z"
           style="font-style:normal;font-variant:normal;font-weight:bold;font-stretch:normal;font-size:12.5481px;font-family:Graphik;-inkscape-font-specification:'Graphik Bold';font-variant-ligatures:normal;font-variant-caps:normal;font-variant-numeric:normal;font-variant-east-asian:normal;text-align:start;text-anchor:start;fill:#ffffff;stroke-width:0.294095"
           id="path910" />
        <path
           d="M 124.72228,19.549105 H 126.95584 V 14.517316 H 128.28594 V 12.986448 H 126.95584 V 12.409236 C 126.95584,11.9826 127.18171,11.693994 127.70873,11.693994 127.95969,11.693994 128.16046,11.731638 128.32358,11.78183 V 10.138029 C 128.02243,10.062741 127.70873,10 127.29464,10 125.73867,10 124.72228,10.777982 124.72228,12.409236 V 12.986448 H 123.8941 V 14.517316 H 124.72228 Z"
           style="font-style:normal;font-variant:normal;font-weight:bold;font-stretch:normal;font-size:12.5481px;font-family:Graphik;-inkscape-font-specification:'Graphik Bold';font-variant-ligatures:normal;font-variant-caps:normal;font-variant-numeric:normal;font-variant-east-asian:normal;text-align:start;text-anchor:start;fill:#ffffff;stroke-width:0.294095"
           id="path912" />
        <path
           d="M 131.89978,19.699682 C 132.4268,19.699682 132.85344,19.586749 133.14204,19.51146 V 17.804919 C 132.94127,17.880207 132.75305,17.917852 132.50209,17.917852 132.07545,17.917852 131.83704,17.704534 131.83704,17.227706 V 14.517316 H 133.12949 V 12.986448 H 131.83704 V 11.618705 H 129.59093 V 12.986448 H 128.8004 V 14.517316 H 129.59093 V 17.441024 C 129.59093,18.98444 130.4191,19.699682 131.89978,19.699682 Z"
           style="font-style:normal;font-variant:normal;font-weight:bold;font-stretch:normal;font-size:12.5481px;font-family:Graphik;-inkscape-font-specification:'Graphik Bold';font-variant-ligatures:normal;font-variant-caps:normal;font-variant-numeric:normal;font-variant-east-asian:normal;text-align:start;text-anchor:start;fill:#ffffff;stroke-width:0.294095"
           id="path914" />
        <path
           d="M 75.27031,33.063409 C 77.278006,33.063409 78.70849,32.047013 79.022192,29.976576 H 78.005796 C 77.77993,31.432156 76.763534,32.172494 75.295406,32.172494 73.362999,32.172494 72.208574,30.792203 72.208574,28.508448 V 28.408064 C 72.208574,26.149406 73.450836,24.706374 75.307955,24.706374 76.838823,24.706374 77.629353,25.409068 77.855219,26.776811 H 78.934356 C 78.746134,24.831855 77.165073,23.840555 75.295406,23.840555 72.861075,23.840555 71.079245,25.760414 71.079245,28.420612 V 28.520997 C 71.079245,31.281579 72.672853,33.063409 75.27031,33.063409 Z"
           style="font-style:normal;font-variant:normal;font-weight:normal;font-stretch:normal;font-size:12.5481px;font-family:Graphik;-inkscape-font-specification:'Graphik Normal';font-variant-ligatures:normal;font-variant-caps:normal;font-variant-numeric:normal;font-variant-east-asian:normal;text-align:start;text-anchor:start;fill:#ffffff;stroke-width:0.294095"
           id="path916" />
        <path
           d="M 83.338733,32.19759 C 82.008634,32.19759 81.193008,31.218838 81.193008,29.725614 V 29.625229 C 81.193008,28.119457 82.021183,27.140705 83.338733,27.140705 84.643736,27.140705 85.484458,28.119457 85.484458,29.637777 V 29.725614 C 85.484458,31.20629 84.656284,32.19759 83.338733,32.19759 Z M 83.326185,33.063409 C 85.195852,33.063409 86.563595,31.695666 86.563595,29.713066 V 29.612681 C 86.563595,27.642629 85.195852,26.274887 83.338733,26.274887 81.481614,26.274887 80.113871,27.655178 80.113871,29.625229 V 29.725614 C 80.113871,31.645474 81.456518,33.063409 83.326185,33.063409 Z"
           style="font-style:normal;font-variant:normal;font-weight:normal;font-stretch:normal;font-size:12.5481px;font-family:Graphik;-inkscape-font-specification:'Graphik Normal';font-variant-ligatures:normal;font-variant-caps:normal;font-variant-numeric:normal;font-variant-east-asian:normal;text-align:start;text-anchor:start;fill:#ffffff;stroke-width:0.294095"
           id="path918" />
        <path
           d="M 88.182277,32.950476 H 89.22377 V 28.972728 C 89.22377,27.793207 90.089588,27.17835 91.055792,27.17835 92.109833,27.17835 92.599209,27.692822 92.599209,28.847247 V 32.950476 H 93.640701 V 28.922536 C 93.640701,27.015224 92.687045,26.274887 91.33185,26.274887 90.252714,26.274887 89.524924,26.814455 89.22377,27.429312 V 26.387819 H 88.182277 Z"
           style="font-style:normal;font-variant:normal;font-weight:normal;font-stretch:normal;font-size:12.5481px;font-family:Graphik;-inkscape-font-specification:'Graphik Normal';font-variant-ligatures:normal;font-variant-caps:normal;font-variant-numeric:normal;font-variant-east-asian:normal;text-align:start;text-anchor:start;fill:#ffffff;stroke-width:0.294095"
           id="path920" />
        <path
           d="M 97.681185,33.038313 C 98.10782,33.038313 98.358782,32.975572 98.5721,32.900284 V 32.021917 C 98.346234,32.109753 98.095272,32.159946 97.769021,32.159946 97.242001,32.159946 96.953395,31.846243 96.953395,31.20629 V 27.266186 H 98.484263 V 26.387819 H 96.953395 V 24.894595 H 95.911902 V 26.387819 H 94.970795 V 27.266186 H 95.911902 V 31.306675 C 95.911902,32.335619 96.489115,33.038313 97.681185,33.038313 Z"
           style="font-style:normal;font-variant:normal;font-weight:normal;font-stretch:normal;font-size:12.5481px;font-family:Graphik;-inkscape-font-specification:'Graphik Normal';font-variant-ligatures:normal;font-variant-caps:normal;font-variant-numeric:normal;font-variant-east-asian:normal;text-align:start;text-anchor:start;fill:#ffffff;stroke-width:0.294095"
           id="path922" />
        <path
           d="M 101.84714,33.063409 C 102.81334,33.063409 103.4031,32.737158 103.89248,32.122301 V 32.950476 H 104.93397 V 28.621381 C 104.93397,26.789359 103.79209,26.274887 102.53728,26.274887 101.26992,26.274887 100.07786,26.827003 99.939826,28.320227 H 100.98132 C 101.0817,27.517148 101.58363,27.140705 102.48709,27.140705 103.49094,27.140705 103.89248,27.579889 103.89248,28.621381 V 29.098209 H 102.95137 C 101.26992,29.098209 99.663768,29.612681 99.663768,31.131001 99.663768,32.473648 100.62997,33.063409 101.84714,33.063409 Z M 101.94752,32.235234 C 101.03151,32.235234 100.70526,31.808599 100.70526,31.131001 100.70526,30.164798 101.67146,29.838547 102.98901,29.838547 H 103.89248 V 30.654174 C 103.89248,31.67057 103.05176,32.235234 101.94752,32.235234 Z"
           style="font-style:normal;font-variant:normal;font-weight:normal;font-stretch:normal;font-size:12.5481px;font-family:Graphik;-inkscape-font-specification:'Graphik Normal';font-variant-ligatures:normal;font-variant-caps:normal;font-variant-numeric:normal;font-variant-east-asian:normal;text-align:start;text-anchor:start;fill:#ffffff;stroke-width:0.294095"
           id="path924" />
        <path
           d="M 107.0044,32.950476 H 108.04589 V 26.387819 H 107.0044 Z M 107.50632,25.020076 C 107.88276,25.020076 108.19646,24.706374 108.19646,24.329931 108.19646,23.953488 107.88276,23.639785 107.50632,23.639785 107.12988,23.639785 106.81617,23.953488 106.81617,24.329931 106.81617,24.706374 107.12988,25.020076 107.50632,25.020076 Z"
           style="font-style:normal;font-variant:normal;font-weight:normal;font-stretch:normal;font-size:12.5481px;font-family:Graphik;-inkscape-font-specification:'Graphik Normal';font-variant-ligatures:normal;font-variant-caps:normal;font-variant-numeric:normal;font-variant-east-asian:normal;text-align:start;text-anchor:start;fill:#ffffff;stroke-width:0.294095"
           id="path926" />
        <path
           d="M 110.17905,32.950476 H 111.22054 V 28.972728 C 111.22054,27.793207 112.08636,27.17835 113.05257,27.17835 114.10661,27.17835 114.59598,27.692822 114.59598,28.847247 V 32.950476 H 115.63748 V 28.922536 C 115.63748,27.015224 114.68382,26.274887 113.32863,26.274887 112.24949,26.274887 111.5217,26.814455 111.22054,27.429312 V 26.387819 H 110.17905 Z"
           style="font-style:normal;font-variant:normal;font-weight:normal;font-stretch:normal;font-size:12.5481px;font-family:Graphik;-inkscape-font-specification:'Graphik Normal';font-variant-ligatures:normal;font-variant-caps:normal;font-variant-numeric:normal;font-variant-east-asian:normal;text-align:start;text-anchor:start;fill:#ffffff;stroke-width:0.294095"
           id="path928" />
        <path
           d="M 120.36811,33.063409 C 121.84878,33.063409 122.94047,32.373263 123.16633,31.055713 H 122.12484 C 121.98681,31.821147 121.39705,32.19759 120.38065,32.19759 119.03801,32.19759 118.32277,31.369415 118.27257,29.876191 H 123.21653 V 29.537393 C 123.21653,27.190898 121.78604,26.274887 120.26772,26.274887 118.4608,26.274887 117.19344,27.655178 117.19344,29.637777 V 29.738162 C 117.19344,31.758406 118.51099,33.063409 120.36811,33.063409 Z M 118.31022,29.035469 C 118.48589,27.868495 119.20113,27.140705 120.26772,27.140705 121.34686,27.140705 122.04955,27.680274 122.14994,29.035469 Z"
           style="font-style:normal;font-variant:normal;font-weight:normal;font-stretch:normal;font-size:12.5481px;font-family:Graphik;-inkscape-font-specification:'Graphik Normal';font-variant-ligatures:normal;font-variant-caps:normal;font-variant-numeric:normal;font-variant-east-asian:normal;text-align:start;text-anchor:start;fill:#ffffff;stroke-width:0.294095"
           id="path930" />
        <path
           d="M 124.81012,32.950476 H 125.85161 V 29.349171 C 125.85161,27.730466 126.69234,27.316379 128.00989,27.253638 V 26.274887 C 126.83037,26.312531 126.2657,26.827003 125.85161,27.567341 V 26.387819 H 124.81012 Z"
           style="font-style:normal;font-variant:normal;font-weight:normal;font-stretch:normal;font-size:12.5481px;font-family:Graphik;-inkscape-font-specification:'Graphik Normal';font-variant-ligatures:normal;font-variant-caps:normal;font-variant-numeric:normal;font-variant-east-asian:normal;text-align:start;text-anchor:start;fill:#ffffff;stroke-width:0.294095"
           id="path932" />
        <path
           d="M 132.92873,32.950476 H 134.02041 V 29.298979 H 135.47599 C 137.18253,29.298979 138.61302,28.558641 138.61302,26.65133 V 26.601137 C 138.61302,24.73147 137.19508,23.978584 135.47599,23.978584 H 132.92873 Z M 134.02041,28.43316 V 24.856951 H 135.55128 C 136.76844,24.856951 137.52133,25.333779 137.52133,26.601137 V 26.65133 C 137.52133,27.805755 136.83118,28.43316 135.55128,28.43316 Z"
           style="font-style:normal;font-variant:normal;font-weight:normal;font-stretch:normal;font-size:12.5481px;font-family:Graphik;-inkscape-font-specification:'Graphik Normal';font-variant-ligatures:normal;font-variant-caps:normal;font-variant-numeric:normal;font-variant-east-asian:normal;text-align:start;text-anchor:start;fill:#ffffff;stroke-width:0.294095"
           id="path934" />
        <path
           d="M 140.16897,32.950476 H 141.22301 V 23.250794 H 140.16897 Z"
           style="font-style:normal;font-variant:normal;font-weight:normal;font-stretch:normal;font-size:12.5481px;font-family:Graphik;-inkscape-font-specification:'Graphik Normal';font-variant-ligatures:normal;font-variant-caps:normal;font-variant-numeric:normal;font-variant-east-asian:normal;text-align:start;text-anchor:start;fill:#ffffff;stroke-width:0.294095"
           id="path936" />
        <path
           d="M 144.99997,33.063409 C 145.96618,33.063409 146.55594,32.737158 147.04531,32.122301 V 32.950476 H 148.08681 V 28.621381 C 148.08681,26.789359 146.94493,26.274887 145.69012,26.274887 144.42276,26.274887 143.23069,26.827003 143.09266,28.320227 H 144.13415 C 144.23454,27.517148 144.73646,27.140705 145.63993,27.140705 146.64377,27.140705 147.04531,27.579889 147.04531,28.621381 V 29.098209 H 146.10421 C 144.42276,29.098209 142.8166,29.612681 142.8166,31.131001 142.8166,32.473648 143.78281,33.063409 144.99997,33.063409 Z M 145.10036,32.235234 C 144.18435,32.235234 143.8581,31.808599 143.8581,31.131001 143.8581,30.164798 144.8243,29.838547 146.14185,29.838547 H 147.04531 V 30.654174 C 147.04531,31.67057 146.20459,32.235234 145.10036,32.235234 Z"
           style="font-style:normal;font-variant:normal;font-weight:normal;font-stretch:normal;font-size:12.5481px;font-family:Graphik;-inkscape-font-specification:'Graphik Normal';font-variant-ligatures:normal;font-variant-caps:normal;font-variant-numeric:normal;font-variant-east-asian:normal;text-align:start;text-anchor:start;fill:#ffffff;stroke-width:0.294095"
           id="path938" />
        <path
           d="M 152.12728,33.038313 C 152.55392,33.038313 152.80488,32.975572 153.0182,32.900284 V 32.021917 C 152.79233,32.109753 152.54137,32.159946 152.21512,32.159946 151.6881,32.159946 151.39949,31.846243 151.39949,31.20629 V 27.266186 H 152.93036 V 26.387819 H 151.39949 V 24.894595 H 150.358 V 26.387819 H 149.41689 V 27.266186 H 150.358 V 31.306675 C 150.358,32.335619 150.93521,33.038313 152.12728,33.038313 Z"
           style="font-style:normal;font-variant:normal;font-weight:normal;font-stretch:normal;font-size:12.5481px;font-family:Graphik;-inkscape-font-specification:'Graphik Normal';font-variant-ligatures:normal;font-variant-caps:normal;font-variant-numeric:normal;font-variant-east-asian:normal;text-align:start;text-anchor:start;fill:#ffffff;stroke-width:0.294095"
           id="path940" />
        <path
           d="M 154.74982,32.950476 H 155.79131 V 27.266186 H 157.39747 V 26.387819 H 155.79131 V 25.208298 C 155.79131,24.543249 156.06737,24.078969 156.74496,24.078969 157.03357,24.078969 157.29708,24.141709 157.4853,24.216998 V 23.338631 C 157.22179,23.250794 157.04612,23.21315 156.70732,23.21315 155.40232,23.21315 154.74982,23.991132 154.74982,25.321231 V 26.387819 H 153.80871 V 27.266186 H 154.74982 Z"
           style="font-style:normal;font-variant:normal;font-weight:normal;font-stretch:normal;font-size:12.5481px;font-family:Graphik;-inkscape-font-specification:'Graphik Normal';font-variant-ligatures:normal;font-variant-caps:normal;font-variant-numeric:normal;font-variant-east-asian:normal;text-align:start;text-anchor:start;fill:#ffffff;stroke-width:0.294095"
           id="path942" />
        <path
           d="M 161.28734,32.19759 C 159.95725,32.19759 159.14162,31.218838 159.14162,29.725614 V 29.625229 C 159.14162,28.119457 159.96979,27.140705 161.28734,27.140705 162.59235,27.140705 163.43307,28.119457 163.43307,29.637777 V 29.725614 C 163.43307,31.20629 162.60489,32.19759 161.28734,32.19759 Z M 161.2748,33.063409 C 163.14446,33.063409 164.51221,31.695666 164.51221,29.713066 V 29.612681 C 164.51221,27.642629 163.14446,26.274887 161.28734,26.274887 159.43023,26.274887 158.06248,27.655178 158.06248,29.625229 V 29.725614 C 158.06248,31.645474 159.40513,33.063409 161.2748,33.063409 Z"
           style="font-style:normal;font-variant:normal;font-weight:normal;font-stretch:normal;font-size:12.5481px;font-family:Graphik;-inkscape-font-specification:'Graphik Normal';font-variant-ligatures:normal;font-variant-caps:normal;font-variant-numeric:normal;font-variant-east-asian:normal;text-align:start;text-anchor:start;fill:#ffffff;stroke-width:0.294095"
           id="path944" />
        <path
           d="M 166.13088,32.950476 H 167.17238 V 29.349171 C 167.17238,27.730466 168.0131,27.316379 169.33065,27.253638 V 26.274887 C 168.15113,26.312531 167.58646,26.827003 167.17238,27.567341 V 26.387819 H 166.13088 Z"
           style="font-style:normal;font-variant:normal;font-weight:normal;font-stretch:normal;font-size:12.5481px;font-family:Graphik;-inkscape-font-specification:'Graphik Normal';font-variant-ligatures:normal;font-variant-caps:normal;font-variant-numeric:normal;font-variant-east-asian:normal;text-align:start;text-anchor:start;fill:#ffffff;stroke-width:0.294095"
           id="path946" />
        <path
           d="M 170.84896,32.950476 H 171.89045 V 28.935084 C 171.89045,27.755562 172.76882,27.17835 173.62209,27.17835 174.52556,27.17835 175.01493,27.655178 175.01493,28.809603 V 32.950476 H 176.05642 V 28.935084 C 176.05642,27.755562 176.93479,27.17835 177.78806,27.17835 178.69153,27.17835 179.1809,27.655178 179.1809,28.809603 V 32.950476 H 180.22239 V 28.884891 C 180.22239,26.97758 179.19345,26.274887 178.01393,26.274887 177.1983,26.274887 176.21955,26.65133 175.76782,27.5046 175.42902,26.626233 174.68868,26.274887 173.84796,26.274887 172.90685,26.274887 172.19161,26.776811 171.89045,27.391667 V 26.387819 H 170.84896 Z"
           style="font-style:normal;font-variant:normal;font-weight:normal;font-stretch:normal;font-size:12.5481px;font-family:Graphik;-inkscape-font-specification:'Graphik Normal';font-variant-ligatures:normal;font-variant-caps:normal;font-variant-numeric:normal;font-variant-east-asian:normal;text-align:start;text-anchor:start;fill:#ffffff;stroke-width:0.294095"
           id="path948" />
      </g>
    </g>
  </svg>
